#N canvas 962 61 956 992 12;
#X obj 299 -25 inlet;
#X symbolatom 298 63 27 0 0 0 - - -, f 27;
#X floatatom 437 87 3 0 0 0 - #0-time #0-time_out, f 3;
#X text 276 -50 patch name;
#X text 24 -50 autosave frequency (minutes);
#X obj 16 157 loadbang;
#X msg 16 195 del 5000;
#X obj 38 215 t b b;
#X msg 55 406 menusave;
#X obj 55 443 s;
#X obj 55 283 tgl 15 0 empty empty empty 17 7 0 10 #fcfcfc #000000
#000000 1 1;
#X obj 55 358 t b b;
#X obj 108 280 * 60000;
#X msg 70 239 5, f 1;
#X obj 55 333 metro, f 8;
#X obj 76 126 sel 0;
#X text 300 86 frequency (min);
#X text 298 41 patch name, f 27;
#X obj 299 -2 symbol;
#X msg 421 177 pd-;
#X obj 421 259 symbol;
#X obj 488 259 symbol;
#X msg 488 177 .pd;
#X obj 300 328 pack s s s;
#X msg 300 374 \$2\$1\$3;
#X obj 300 399 symbol;
#X obj 108 210 t b f b;
#X obj 200 146 s \$0-time;
#X obj 298 109 hsl 187 20 0 20 0 0 empty empty empty -2 -8 0 10 #fcfcfc
#000000 #000000 5550 1;
#X obj 76 88 i;
#X obj 76 -5 inlet;
#X text 356 18 AUTOSAVE;
#X connect 0 0 18 0;
#X connect 1 0 23 0;
#X connect 5 0 6 0;
#X connect 5 0 22 0;
#X connect 5 0 19 0;
#X connect 6 0 7 0;
#X connect 7 0 10 0;
#X connect 7 1 13 0;
#X connect 8 0 9 0;
#X connect 10 0 14 0;
#X connect 11 0 8 0;
#X connect 11 1 25 0;
#X connect 12 0 14 1;
#X connect 13 0 12 0;
#X connect 13 0 27 0;
#X connect 14 0 11 0;
#X connect 15 1 26 0;
#X connect 15 1 27 0;
#X connect 18 0 1 0;
#X connect 19 0 20 0;
#X connect 20 0 23 1;
#X connect 21 0 23 2;
#X connect 22 0 21 0;
#X connect 23 0 24 0;
#X connect 24 0 25 0;
#X connect 25 0 9 1;
#X connect 26 0 10 0;
#X connect 26 1 12 0;
#X connect 26 2 10 0;
#X connect 28 0 29 0;
#X connect 29 0 15 0;
#X connect 30 0 28 0;
#X coords 0 -1 1 1 198 117 2 296 16;
